<?xml version="1.0" encoding="UTF-8"?>
<!-- Generator: Adobe Illustrator 27.4.0, SVG Export Plug-In . SVG Version: 6.00 Build 0)  -->
<svg xmlns="http://www.w3.org/2000/svg" xmlns:xlink="http://www.w3.org/1999/xlink" version="1.1" id="Layer_1" x="0px" y="0px" viewBox="0 0 313 213" style="enable-background:new 0 0 313 213;" xml:space="preserve">
<style type="text/css">
	.st0{opacity:0.4;}
	.st1{fill:none;stroke:#000000;stroke-miterlimit:10;}
</style>
<g>
	<path d="M214.8,98.57c0-0.5,0.01-0.92,0.01-1.35c0-0.44,0-0.88,0-1.33c0-0.43,0-0.86,0-1.29c0-0.44,0-0.88,0-1.33   c0-0.43,0-0.86,0-1.29c0-0.44,0-0.88,0-1.33c0-0.43,0-0.86,0-1.29c0-0.44,0-0.88,0-1.33c0-0.43,0-0.86,0-1.33   c1.27-0.03,2.49-0.01,3.66-0.01c0.05,0.06,0.06,0.06,0.07,0.07c0.01,0.01,0.01,0.02,0.01,0.03c0.01,0.04,0.02,0.09,0.02,0.13   c0,10.1,0,20.21,0,30.31c0,0.07,0,0.13-0.01,0.2c0,0.02-0.01,0.04-0.01,0.06c-0.01,0.02-0.02,0.04-0.03,0.06   c-0.27,0.08-3.36,0.08-3.7-0.01c-0.03-0.94,0-1.89-0.02-2.84c-0.02-0.01-0.05-0.02-0.07-0.03c-0.11,0.11-0.23,0.23-0.34,0.34   c-1.64,1.62-3.58,2.66-5.85,3.04c-3.14,0.53-6.01-0.19-8.52-2.14c-2.53-1.96-3.99-4.58-4.4-7.75c-0.44-3.39,0.42-6.46,2.59-9.11   c1.86-2.27,4.26-3.64,7.19-3.98c3.15-0.37,5.95,0.53,8.38,2.56c0.27,0.23,0.52,0.48,0.78,0.72   C214.6,98.41,214.67,98.46,214.8,98.57z M199.1,106.44c0.02,0.48,0.02,0.8,0.06,1.12c0.27,2.14,1.21,3.93,2.86,5.34   c2.31,1.97,5.67,2.35,8.36,0.94c3.03-1.59,4.69-4.87,4.26-8.28c-0.26-2.04-1.18-3.75-2.73-5.12c-2.38-2.11-5.97-2.51-8.72-0.9   C200.5,101.1,199.21,103.51,199.1,106.44z"></path>
	<path d="M221.88,106.61c-0.05-6.23,5.04-11.63,11.63-11.62c6.38,0.01,11.61,5.15,11.6,11.62c-0.01,6.57-5.37,11.61-11.62,11.61   C227.06,118.22,221.85,112.94,221.88,106.61z M233.51,98.54c-0.96-0.01-1.88,0.17-2.76,0.52c-2.92,1.15-4.98,4-5.05,7.42   c-0.03,1.49,0.33,2.89,1.07,4.19c1.58,2.79,4.59,4.31,7.57,3.96c1.82-0.21,3.37-0.98,4.64-2.28c2.54-2.62,3.08-6.58,1.28-9.75   C238.77,100,236.5,98.64,233.51,98.54z"></path>
	<path d="M144.33,106.63c0.05,6.2-5.07,11.59-11.59,11.59c-6.44,0-11.66-5.21-11.64-11.66c0.03-6.48,5.31-11.61,11.69-11.57   C139.39,95.04,144.41,100.49,144.33,106.63z M132.73,98.54c-0.61,0-1.2,0.07-1.78,0.21c-3.32,0.81-5.78,3.77-6,7.3   c-0.12,1.95,0.36,3.76,1.52,5.35c1.45,1.99,3.41,3.13,5.88,3.27c2.14,0.12,4.01-0.59,5.57-2.05c2.77-2.57,3.43-6.71,1.57-10   C138.01,100.01,135.74,98.65,132.73,98.54z"></path>
	<path d="M151.61,95.63c0,1.02,0,1.99,0,2.96c0.02,0.01,0.03,0.01,0.05,0.02c0.05-0.06,0.1-0.12,0.15-0.19   c1.24-1.91,3.02-2.96,5.25-3.3c1.69-0.26,3.36-0.14,4.98,0.4c2.3,0.77,3.86,2.31,4.65,4.61c0.35,1.01,0.55,2.05,0.6,3.11   c0.03,0.69,0.05,1.39,0.05,2.09c0,3.92,0,7.85,0,11.77c0,0.15-0.01,0.3-0.02,0.45c-0.27,0.09-3.22,0.11-3.67,0.03   c-0.11-0.14-0.07-0.31-0.07-0.47c0-2.9,0-5.79,0-8.69c0-1.23,0-2.45-0.01-3.68c-0.01-0.97-0.16-1.92-0.48-2.83   c-0.44-1.22-1.2-2.15-2.36-2.75c-0.59-0.3-1.21-0.48-1.87-0.54c-1.23-0.12-2.43,0-3.57,0.52c-1.44,0.66-2.38,1.8-2.99,3.23   c-0.43,1.01-0.61,2.07-0.67,3.16c-0.01,0.28-0.01,0.55-0.01,0.83c0,3.58,0,7.16,0,10.75c0,0.15-0.01,0.3-0.02,0.44   c-0.3,0.09-3.39,0.09-3.73,0.01c-0.01-0.15-0.02-0.31-0.02-0.47c0-5.14,0-10.28,0-15.42c0-1.86,0-3.71,0-5.57   c0-0.48,0-0.48,0.47-0.49c0.95,0,1.9,0,2.85,0C151.3,95.6,151.43,95.62,151.61,95.63z"></path>
	<path d="M173.78,117.57c-0.01-1.24,0-2.46,0-3.68c0-1.23,0-2.45,0-3.68s0-2.45,0-3.68c0-1.23,0-2.45,0-3.68c0-1.23,0-2.45,0-3.71   c-0.17-0.02-0.31-0.04-0.44-0.04c-1.06,0-2.12,0-3.19,0c-0.14,0-0.28-0.02-0.45-0.02c-0.01-0.13-0.03-0.23-0.03-0.34   c0-0.92,0-1.84,0-2.75c0-0.36,0.01-0.37,0.38-0.37c1.08,0,2.17,0,3.25,0c0.14,0,0.28-0.01,0.46-0.02c0.01-0.16,0.03-0.3,0.03-0.44   c0-1.3,0-2.61,0-3.91c0-2.77,2.03-5.01,4.78-5.27c0.26-0.03,0.53-0.04,0.79-0.04c1.31,0,2.61,0,3.92,0c0.08,0,0.15,0,0.23,0   c0.28,0.01,0.31,0.03,0.31,0.3c0.01,0.45,0,0.91,0,1.36s0,0.91,0,1.36c0,0.41,0,0.41-0.4,0.41c-1.17,0-2.34,0-3.52,0   c-0.12,0-0.24,0.01-0.36,0c-0.97-0.05-1.99,0.69-2.01,1.97c-0.01,0.75,0,1.5,0,2.26c0,0.56,0,1.13,0,1.69   c0,0.09,0.02,0.17,0.03,0.3c0.15,0.01,0.28,0.03,0.42,0.03c1.73,0,3.45,0,5.18,0c0.09,0,0.18,0,0.27,0c0.4,0,0.41,0.01,0.41,0.41   c0,0.9,0,1.79,0,2.69c0,0.11-0.01,0.22-0.02,0.36c-0.17,0.01-0.32,0.03-0.47,0.03c-1.75,0-3.5,0-5.24,0c-0.06,0-0.11,0-0.17,0   c-0.4,0-0.41,0.01-0.41,0.41c0,3.74,0,7.47,0,11.21c0,2.11,0,4.22,0,6.33c0,0.1,0,0.2,0,0.3c-0.01,0.24-0.03,0.27-0.28,0.27   c-1.08,0-2.17,0-3.25,0C173.94,117.61,173.89,117.59,173.78,117.57z"></path>
	<path d="M81.25,106.57c-0.03-3.94,3.19-7.35,7.37-7.35c3.81-0.01,7.35,3.02,7.36,7.37c0.01,4.13-3.32,7.4-7.43,7.37   C84.47,113.93,81.22,110.59,81.25,106.57z"></path>
	<path d="M89.14,118.19c3.54,0.02,6.84,0.9,9.9,2.67c0.1,0.06,0.19,0.11,0.28,0.18c0.23,0.18,0.23,0.43,0.01,0.62   c-0.09,0.08-0.2,0.14-0.3,0.21c-3.13,2-6.49,3.52-10.05,4.56c-1.06,0.31-2.13,0.6-3.21,0.81c-1.62,0.32-3.11-0.07-4.39-1.11   c-0.76-0.62-1.47-1.3-2.19-1.98c-0.47-0.44-0.91-0.9-1.35-1.37c-0.41-0.42-0.37-0.75,0.11-1.09c2.29-1.58,4.79-2.64,7.53-3.16   C86.69,118.31,87.91,118.18,89.14,118.19z"></path>
	<path d="M100.25,105.87c0.02-3.06,0.78-6.12,2.28-9c0.15-0.29,0.32-0.58,0.49-0.86c0.22-0.36,0.5-0.37,0.71-0.01   c0.63,1.06,1.28,2.12,1.86,3.21c1.64,3.11,2.78,6.4,3.56,9.82c0.44,1.92,0,3.61-1.29,5.09c-0.95,1.09-1.97,2.12-3,3.14   c-0.45,0.45-0.81,0.43-1.18-0.11c-1.55-2.29-2.61-4.79-3.12-7.51C100.37,108.45,100.26,107.26,100.25,105.87z"></path>
	<path d="M92.3,85.88c1.57,0.01,2.8,0.51,3.85,1.47c0.82,0.75,1.64,1.51,2.45,2.28c0.28,0.26,0.54,0.56,0.8,0.84   c0.32,0.35,0.3,0.67-0.1,0.95c-1.4,0.98-2.91,1.77-4.51,2.36c-1.47,0.54-2.98,0.9-4.54,1.07c-1.32,0.14-2.64,0.15-3.97,0.03   c-1.97-0.18-3.88-0.64-5.71-1.41c-0.83-0.35-1.63-0.8-2.44-1.2c-0.05-0.02-0.1-0.06-0.14-0.09c-0.31-0.22-0.32-0.47,0.01-0.68   c0.71-0.45,1.42-0.89,2.15-1.31c2.27-1.28,4.65-2.31,7.13-3.1c1.4-0.45,2.81-0.85,4.26-1.12C91.85,85.9,92.15,85.9,92.3,85.88z"></path>
	<path d="M77,107.12c-0.03,3.54-0.95,6.84-2.7,9.91c-0.24,0.42-0.58,0.55-0.9,0.03c-1.43-2.27-2.64-4.65-3.6-7.16   c-0.76-2-1.39-4.03-1.8-6.13c-0.32-1.63,0.08-3.12,1.12-4.41c1.02-1.26,2.17-2.42,3.35-3.54c0.35-0.34,0.7-0.31,0.98,0.1   c0.35,0.52,0.7,1.05,1.01,1.6c1.26,2.25,2.09,4.65,2.37,7.23C76.9,105.53,76.94,106.33,77,107.12z"></path>
	<path d="M191.83,95.63c0,0.16,0,0.28,0,0.4c0,7.05,0,14.1,0,21.15c0,0.03,0,0.07,0,0.1c-0.01,0.32-0.02,0.33-0.34,0.34   c-1.03,0-2.06,0-3.08,0c-0.32,0-0.33-0.02-0.34-0.34c0-0.08,0-0.15,0-0.23c0-6.95,0-13.9,0-20.85c0-0.63-0.04-0.59,0.6-0.59   c0.91,0,1.81,0,2.72,0C191.51,95.6,191.64,95.61,191.83,95.63z"></path>
	<path d="M192.78,88.52c0,1.59-1.26,2.84-2.85,2.83c-1.58-0.01-2.82-1.28-2.81-2.87c0.01-1.58,1.28-2.83,2.87-2.82   C191.62,85.67,192.85,87.08,192.78,88.52z"></path>
</g>
</svg>
